<svg width="645" height="645" viewBox="0 0 645 645" fill="none" xmlns="http://www.w3.org/2000/svg">
<rect width="645" height="645" rx="80" fill="white"/>
<path d="M520.375 477.25L523.351 470.557C544.137 423.789 554.876 373.179 554.875 322C554.876 270.821 544.137 220.211 523.351 173.443L520.375 166.75H365.125L362.149 173.443C341.363 220.211 330.624 270.821 330.625 322C330.624 373.179 341.363 423.789 362.149 470.557L365.125 477.25H520.375Z" fill="#CCCCCC"/>
<path d="M554.875 322C554.876 270.821 544.137 220.211 523.351 173.443L520.375 166.75H391L388.024 173.443C367.239 220.211 356.5 270.821 356.5 322C356.5 373.179 367.239 423.789 388.024 470.557L391 477.25H520.375L523.351 470.557C544.137 423.789 554.876 373.179 554.875 322Z" fill="#E6E6E6"/>
<path d="M140.875 63.25H244.375V580.75H140.875V63.25Z" fill="#B3B3B3"/>
<path d="M296.125 158.125C296.125 148.975 292.49 140.2 286.02 133.73C279.55 127.26 270.775 123.625 261.625 123.625H123.625C114.475 123.625 105.7 127.26 99.2298 133.73C92.7598 140.2 89.125 148.975 89.125 158.125V485.875C89.125 495.025 92.7598 503.8 99.2298 510.27C105.7 516.74 114.475 520.375 123.625 520.375H261.625C270.775 520.375 279.55 516.74 286.02 510.27C292.49 503.8 296.125 495.025 296.125 485.875V158.125Z" fill="#CB3EF9"/>
<path d="M261.625 123.625H149.5C130.446 123.625 115 139.071 115 158.125V485.875C115 504.929 130.446 520.375 149.5 520.375H261.625C280.679 520.375 296.125 504.929 296.125 485.875V158.125C296.125 139.071 280.679 123.625 261.625 123.625Z" fill="#EDBCFD"/>
<path d="M520.375 477.25H365.125C360.55 477.25 356.162 479.067 352.927 482.302C349.692 485.537 347.875 489.925 347.875 494.5V511.75H537.625V494.5C537.625 489.925 535.808 485.537 532.573 482.302C529.338 479.067 524.95 477.25 520.375 477.25Z" fill="#3693CF"/>
<path d="M520.375 166.75H365.125C360.55 166.75 356.162 164.933 352.927 161.698C349.692 158.463 347.875 154.075 347.875 149.5V132.25H537.625V149.5C537.625 154.075 535.808 158.463 532.573 161.698C529.338 164.933 524.95 166.75 520.375 166.75Z" fill="#3693CF"/>
<path d="M89.125 438.739L211.6 520.375H242.65L93.8946 421.187L108.557 411.424L270.164 519.185C276.481 517.579 282.21 514.208 286.681 509.464L124.082 401.065L138.745 391.302L294.667 495.268C295.589 492.22 296.079 489.059 296.125 485.875V475.525L154.27 380.935L168.932 371.18L296.125 455.989V435.289L184.457 360.812L198.947 351.153L296.125 419.98V398.84L214.317 340.897L229.281 330.927L296.125 375.475V354.775L244.832 320.577L259.495 310.822L296.125 335.239V314.539L275.02 300.437L296.125 286.361V265.661L89.125 403.661V438.739Z" fill="#CB3EF9"/>
<path d="M296.125 225.383L89.125 363.383V384.117L296.125 246.117V225.383Z" fill="#CB3EF9"/>
<path d="M296.125 185.139L89.125 323.13V343.864L296.125 205.864V185.139Z" fill="#CB3EF9"/>
<path d="M296.125 158.125C296.091 154.102 295.346 150.116 293.926 146.352L89.125 282.886V303.586L296.125 165.586V158.125Z" fill="#CB3EF9"/>
<path d="M266.852 124.151L89.125 242.65V263.35L284.913 132.828C279.891 128.2 273.602 125.179 266.852 124.151Z" fill="#CB3EF9"/>
<path d="M207.27 123.625L89.125 202.388V223.114L238.363 123.625H207.27Z" fill="#CB3EF9"/>
<path d="M146.887 123.625L89.125 162.136V182.862L177.98 123.625H146.887Z" fill="#CB3EF9"/>
<path d="M89.125 478.992L151.199 520.375H182.292L89.125 458.258V478.992Z" fill="#CB3EF9"/>
<path d="M166.75 537.625H244.375V580.75H166.75V537.625Z" fill="#CCCCCC"/>
<path d="M166.75 63.25H244.375V106.375H166.75V63.25Z" fill="#CCCCCC"/>
<path d="M537.625 149.5V132.25H373.75V149.5C373.75 154.075 375.567 158.463 378.802 161.698C382.037 164.933 386.425 166.75 391 166.75H520.375C524.95 166.75 529.338 164.933 532.573 161.698C535.808 158.463 537.625 154.075 537.625 149.5Z" fill="#43B6E5"/>
<path d="M520.375 477.25H391C386.425 477.25 382.037 479.067 378.802 482.302C375.567 485.537 373.75 489.925 373.75 494.5V511.75H537.625V494.5C537.625 489.925 535.808 485.537 532.573 482.302C529.338 479.067 524.95 477.25 520.375 477.25Z" fill="#43B6E5"/>
<path d="M332.35 356.5C332.902 362.27 333.609 368.014 334.429 373.75H340.414C412.718 373.708 484.664 363.609 554.185 343.744C554.539 337.784 554.728 331.807 554.789 325.812C485.146 346.178 412.956 356.511 340.397 356.5H332.35Z" fill="#CCCCCC"/>
<path d="M357.638 459.646C359.122 463.286 360.554 466.96 362.149 470.557L364.892 476.724C420.073 475.289 474.999 468.688 528.948 457.007C531.507 450.573 533.885 444.084 536.081 437.541C477.527 451.072 417.725 458.48 357.638 459.646Z" fill="#CCCCCC"/>
<path d="M337.309 253C336.214 258.727 335.231 264.471 334.411 270.25H340.397C409.853 270.237 478.895 259.546 545.103 238.553C543.786 232.907 542.349 227.292 540.79 221.708C476.005 242.406 408.408 252.961 340.397 253H337.309Z" fill="#CCCCCC"/>
<path d="M330.625 322C330.625 327.762 330.806 333.506 331.073 339.25H340.397C412.913 339.257 485.042 328.684 554.504 307.864C554.268 301.93 553.892 296.013 553.374 290.113C484.353 311.233 412.577 321.979 340.397 322H330.625Z" fill="#CCCCCC"/>
<path d="M341.07 235.75C407.119 235.675 472.763 225.429 535.693 205.373C533.847 199.887 531.898 194.428 529.785 189.028C470.245 207.951 408.208 217.853 345.736 218.405C344.04 224.149 342.484 229.931 341.07 235.75Z" fill="#CCCCCC"/>
<path d="M523.213 173.132L520.375 166.75H481.994C441.356 176.749 399.772 182.407 357.94 183.629C355.583 189.379 353.384 195.178 351.342 201.026C409.673 200.011 467.555 190.618 523.213 173.132Z" fill="#CCCCCC"/>
<path d="M351.178 442.526C415.466 441.734 479.455 433.632 541.912 418.376C543.602 412.2 545.126 405.982 546.483 399.72C480.839 416.424 413.402 425.052 345.667 425.414C347.369 431.152 349.206 436.856 351.178 442.526Z" fill="#CCCCCC"/>
<path d="M337.309 391C338.425 396.779 339.675 402.529 341.061 408.25C411.645 408.157 481.916 398.879 550.105 380.65C551.094 374.521 551.931 368.365 552.615 362.184C483.492 381.279 412.11 390.972 340.397 391H337.309Z" fill="#CCCCCC"/>
<path d="M332.35 287.5C331.807 293.236 331.367 298.989 331.091 304.75H340.414C411.959 304.745 483.094 293.961 551.425 272.76C550.631 266.947 549.7 261.159 548.631 255.398C481.258 276.634 411.038 287.459 340.397 287.5H332.35Z" fill="#CCCCCC"/>
</svg>
